<mxfile host="" modified="2020-12-25T12:28:48.269Z" agent="5.0 (Windows NT 6.2; Win64; x64) AppleWebKit/537.36 (KHTML, like Gecko) Chrome/84.0.4147.105 Safari/537.36" version="13.7.9" etag="fuLcLkxMK6RxJBMs9HN-" type="embed"><diagram id="qwi1iqWoGH-K7fIGJ69R" name="Page-1"><mxGraphModel dx="1535" dy="706" grid="1" gridSize="10" guides="1" tooltips="1" connect="1" arrows="1" fold="1" page="1" pageScale="1" pageWidth="850" pageHeight="1100" math="0" shadow="0"><root><mxCell id="0"/><mxCell id="1" parent="0"/><mxCell id="6" style="edgeStyle=orthogonalEdgeStyle;rounded=0;orthogonalLoop=1;jettySize=auto;html=1;exitX=0.5;exitY=1;exitDx=0;exitDy=0;entryX=0.5;entryY=0;entryDx=0;entryDy=0;" edge="1" parent="1" source="2" target="3"><mxGeometry relative="1" as="geometry"/></mxCell><mxCell id="2" value="用户的 JavaScript 代码" style="rounded=0;whiteSpace=wrap;html=1;" vertex="1" parent="1"><mxGeometry x="-850" y="120" width="170" height="50" as="geometry"/></mxCell><mxCell id="3" value="V8" style="rounded=0;whiteSpace=wrap;html=1;" vertex="1" parent="1"><mxGeometry x="-850" y="225" width="170" height="50" as="geometry"/></mxCell><mxCell id="5" value="&lt;font style=&quot;font-size: 14px&quot;&gt;node binding&lt;/font&gt;" style="rounded=0;whiteSpace=wrap;html=1;" vertex="1" parent="1"><mxGeometry x="-640" y="225" width="120" height="50" as="geometry"/></mxCell><mxCell id="7" value="&lt;font style=&quot;font-size: 14px&quot;&gt;event loop&lt;/font&gt;" style="ellipse;whiteSpace=wrap;html=1;aspect=fixed;" vertex="1" parent="1"><mxGeometry x="-490" y="205" width="90" height="90" as="geometry"/></mxCell><mxCell id="9" value="" style="rounded=0;whiteSpace=wrap;html=1;" vertex="1" parent="1"><mxGeometry x="-360" y="175" width="160" height="150" as="geometry"/></mxCell><mxCell id="10" value="Working Threads" style="rounded=0;whiteSpace=wrap;html=1;" vertex="1" parent="1"><mxGeometry x="-347.5" y="190" width="135" height="40" as="geometry"/></mxCell></root></mxGraphModel></diagram></mxfile>